<svg width="1472" height="442" viewBox="0 0 1472 442" fill="none" xmlns="http://www.w3.org/2000/svg">
<g clip-path="url(#clip0_371_8256)">
<path d="M221.19 0.722656C99.4039 0.722656 0.671875 99.3649 0.671875 221.044C0.671875 342.728 99.4039 441.362 221.19 441.362C342.99 441.362 441.711 342.728 441.711 221.044C441.711 99.3728 342.99 0.73318 221.188 0.73318L221.19 0.722656ZM322.318 318.489C318.368 324.961 309.889 327.013 303.411 323.041C251.636 291.443 186.457 284.287 109.697 301.809C102.3 303.493 94.9273 298.862 93.242 291.469C91.5488 284.076 96.1649 276.71 103.58 275.026C187.582 255.851 259.636 264.107 317.763 299.599C324.241 303.572 326.295 312.017 322.318 318.489ZM349.309 258.498C344.333 266.58 333.747 269.132 325.663 264.16C266.388 227.758 176.032 217.216 105.921 238.479C96.8285 241.223 87.225 236.103 84.4653 227.035C81.7267 217.95 86.8537 208.373 95.9306 205.611C176.016 181.332 275.578 193.093 343.648 234.885C351.732 239.858 354.286 250.434 349.309 258.501V258.498ZM351.627 196.029C280.555 153.852 163.295 149.974 95.4381 170.551C84.5417 173.852 73.0184 167.707 69.7163 156.82C66.4142 145.928 72.5602 134.422 83.4646 131.113C161.36 107.487 290.851 112.051 372.677 160.585C382.499 166.396 385.712 179.043 379.892 188.823C374.099 198.615 361.407 201.843 351.637 196.029H351.627ZM600.629 204.111C562.552 195.04 555.784 188.673 555.784 175.294C555.784 162.655 567.687 154.149 585.409 154.149C602.578 154.149 619.589 160.608 637.442 173.905C637.969 174.308 638.654 174.468 639.312 174.363C639.997 174.263 640.576 173.897 640.971 173.347L659.562 147.164C660.325 146.085 660.115 144.599 659.088 143.775C637.837 126.745 613.927 118.466 585.962 118.466C544.856 118.466 516.127 143.115 516.127 178.383C516.127 216.203 540.906 229.594 583.723 239.931C620.142 248.316 626.303 255.341 626.303 267.896C626.303 281.814 613.874 290.469 593.862 290.469C571.637 290.469 553.493 282.971 533.217 265.449C532.717 265.002 532.032 264.818 531.4 264.844C530.716 264.897 530.11 265.212 529.689 265.712L508.833 290.496C507.964 291.548 508.07 293.074 509.07 293.969C532.664 315.016 561.683 326.119 593.019 326.119C637.311 326.119 665.934 301.94 665.934 264.502C666.013 232.912 647.08 215.416 600.708 204.145L600.629 204.111ZM766.157 166.594C746.96 166.594 731.213 174.15 718.205 189.633V172.205C718.205 170.829 717.099 169.709 715.729 169.709H681.629C680.259 169.709 679.153 170.829 679.153 172.205V365.846C679.153 367.214 680.259 368.346 681.629 368.346H715.729C717.099 368.346 718.205 367.214 718.205 365.846V304.729C731.213 319.278 746.96 326.408 766.157 326.408C801.838 326.408 837.966 298.967 837.966 246.509C838.019 194.04 801.89 166.591 766.183 166.591L766.157 166.594ZM798.309 246.509C798.309 273.21 781.851 291.864 758.257 291.864C734.952 291.864 717.362 272.368 717.362 246.509C717.362 220.647 734.952 201.156 758.257 201.156C781.456 201.154 798.309 220.223 798.309 246.506V246.509ZM930.526 166.594C884.575 166.594 848.578 201.943 848.578 247.08C848.578 291.732 884.338 326.698 929.973 326.698C976.081 326.698 1012.18 291.469 1012.18 246.509C1012.18 201.701 976.318 166.599 930.526 166.599V166.594ZM930.526 292.127C906.089 292.127 887.656 272.5 887.656 246.496C887.656 220.373 905.457 201.417 929.973 201.417C954.567 201.417 973.106 221.036 973.106 247.067C973.106 273.184 955.199 292.127 930.526 292.127ZM1110.3 169.709H1072.78V131.386C1072.78 130.013 1071.67 128.892 1070.3 128.892H1036.2C1034.83 128.892 1033.7 130.013 1033.7 131.386V169.709H1017.32C1015.95 169.709 1014.84 170.829 1014.84 172.205V201.48C1014.84 202.853 1015.95 203.977 1017.32 203.977H1033.7V279.735C1033.7 310.333 1048.94 325.856 1079.04 325.856C1091.26 325.856 1101.4 323.33 1110.96 317.91C1111.75 317.489 1112.22 316.647 1112.22 315.753V287.865C1112.22 287.023 1111.77 286.207 1111.04 285.76C1110.3 285.286 1109.38 285.26 1108.61 285.655C1102.06 288.943 1095.71 290.469 1088.6 290.469C1077.67 290.469 1072.78 285.497 1072.78 274.394V203.99H1110.3C1111.67 203.99 1112.77 202.869 1112.77 201.493V172.221C1112.83 170.845 1111.72 169.725 1110.33 169.725L1110.3 169.709ZM1241.02 169.859V165.152C1241.02 151.305 1246.33 145.13 1258.24 145.13C1265.35 145.13 1271.06 146.541 1277.46 148.672C1278.25 148.919 1279.07 148.795 1279.7 148.324C1280.36 147.853 1280.72 147.098 1280.72 146.299V117.595C1280.72 116.498 1280.04 115.527 1278.96 115.203C1272.22 113.196 1263.58 111.136 1250.63 111.136C1219.16 111.136 1202.49 128.853 1202.49 162.353V169.561H1186.11C1184.74 169.561 1183.61 170.682 1183.61 172.056V201.48C1183.61 202.853 1184.74 203.977 1186.11 203.977H1202.49V320.804C1202.49 322.199 1203.62 323.304 1204.99 323.304H1239.07C1240.46 323.304 1241.57 322.199 1241.57 320.804V203.985H1273.4L1322.17 320.804C1316.64 333.065 1311.19 335.511 1303.77 335.511C1297.76 335.511 1291.42 333.722 1284.96 330.17C1284.36 329.855 1283.62 329.802 1282.99 329.986C1282.33 330.223 1281.78 330.697 1281.51 331.328L1269.95 356.664C1269.4 357.874 1269.88 359.269 1271.03 359.9C1283.09 366.425 1293.97 369.214 1307.43 369.214C1332.6 369.214 1346.53 357.48 1358.78 325.961L1417.92 173.268C1418.23 172.5 1418.13 171.632 1417.65 170.951C1417.21 170.274 1416.44 169.867 1415.63 169.867H1380.13C1379.05 169.867 1378.1 170.543 1377.76 171.54L1341.4 275.289L1301.58 171.471C1301.21 170.506 1300.29 169.867 1299.26 169.867H1241.02V169.859ZM1165.23 169.709H1131.13C1129.76 169.709 1128.63 170.829 1128.63 172.205V320.804C1128.63 322.199 1129.76 323.304 1131.13 323.304H1165.23C1166.6 323.304 1167.73 322.199 1167.73 320.804V172.216C1167.73 170.84 1166.62 169.719 1165.23 169.719V169.709ZM1148.38 102.043C1134.87 102.043 1123.91 112.967 1123.91 126.461C1123.91 139.963 1134.87 150.9 1148.38 150.9C1161.89 150.9 1172.81 139.963 1172.81 126.461C1172.81 112.97 1161.86 102.043 1148.38 102.043ZM1447.04 217.489C1433.56 217.489 1423.05 206.663 1423.05 193.516C1423.05 180.369 1433.69 169.419 1447.17 169.419C1460.66 169.419 1471.16 180.243 1471.16 193.379C1471.16 206.526 1460.52 217.489 1447.04 217.489ZM1447.17 171.803C1434.88 171.803 1425.58 181.564 1425.58 193.516C1425.58 205.463 1434.82 215.093 1447.04 215.093C1459.34 215.093 1468.64 205.34 1468.64 193.379C1468.64 181.432 1459.39 171.803 1447.17 171.803ZM1452.49 195.845L1459.29 205.337H1453.55L1447.44 196.629H1442.2V205.337H1437.4V180.175H1448.62C1454.49 180.175 1458.34 183.166 1458.34 188.202C1458.37 192.327 1455.97 194.847 1452.52 195.845H1452.49ZM1448.44 184.492H1442.2V192.451H1448.44C1451.55 192.451 1453.41 190.927 1453.41 188.467C1453.41 185.879 1451.55 184.492 1448.44 184.492Z" fill="white"/>
</g>
<defs>
<clipPath id="clip0_371_8256">
<rect width="1472" height="442" fill="white"/>
</clipPath>
</defs>
</svg>
